<svg width="305" height="293" viewBox="0 0 305 293" fill="none" xmlns="http://www.w3.org/2000/svg">
<path d="M125.333 89C108.456 123.416 123.834 180.5 123.834 180.5C123.834 180.5 145.565 124.103 170.334 95.5C212.333 47 258.333 37 258.333 37C258.333 37 226.757 52.2034 197.833 78.5C179.49 95.1768 163.8 118.706 152.834 138C110.835 211.895 120.835 286.5 120.835 286.5C120.835 286.5 130.835 232 160.334 207.5C183.549 188.219 206.153 186.406 228.833 166.5C256.678 142.061 266.038 124.744 281.334 91C296.467 57.6146 304.334 0 304.334 0C304.334 0 251 1.85548 219.834 14C178.534 30.0932 146.666 45.5 125.333 89Z" fill="#A5DACF"/>
<path d="M94.3348 250.5C105.933 265.387 117.335 293 117.335 293C117.335 293 115.128 255.872 107.835 233.5C100.419 210.75 93.9106 197.204 80.334 177.5C64.8913 155.088 32.3348 128 32.3348 128C32.3348 128 71.6521 154.513 88.334 179C100.546 196.926 113.334 228.5 113.334 228.5C113.334 228.5 118.476 195.104 111.835 175.5C106.761 160.521 99.7236 150.472 88.334 139.5C74.4949 126.168 63.4214 127.293 46.3348 118.5C28.4762 109.31 0.334815 95.5 0.334815 95.5C0.334815 95.5 -0.418519 111.679 0.334815 122C1.95526 144.202 1.96158 158.364 13.3348 177.5C23.6378 194.835 32.4984 201.415 48.334 212.5C68.334 226.5 80.5502 232.807 94.3348 250.5Z" fill="#A5DACF"/>
</svg>
