<svg width="1458" height="433" viewBox="0 0 1458 433" fill="none" xmlns="http://www.w3.org/2000/svg">
<path d="M152.333 110C135.456 144.416 150.834 201.5 150.834 201.5C150.834 201.5 172.565 145.103 197.334 116.5C239.333 68 285.333 58 285.333 58C285.333 58 253.757 73.2034 224.833 99.5C206.49 116.177 190.8 139.706 179.834 159C137.835 232.895 147.835 307.5 147.835 307.5C147.835 307.5 157.835 253 187.334 228.5C210.549 209.219 233.153 207.406 255.833 187.5C283.678 163.061 293.038 145.744 308.334 112C323.467 78.6146 331.334 21 331.334 21C331.334 21 278 22.8555 246.834 35C205.534 51.0932 173.666 66.5 152.333 110Z" fill="#00AEAB"/>
<path d="M121.335 271.5C132.933 286.387 144.335 314 144.335 314C144.335 314 142.128 276.872 134.835 254.5C127.419 231.75 120.911 218.204 107.334 198.5C91.8913 176.088 59.3348 149 59.3348 149C59.3348 149 98.6521 175.513 115.334 200C127.546 217.926 140.334 249.5 140.334 249.5C140.334 249.5 145.476 216.104 138.835 196.5C133.761 181.521 126.724 171.472 115.334 160.5C101.495 147.168 90.4214 148.293 73.3348 139.5C55.4762 130.31 27.3348 116.5 27.3348 116.5C27.3348 116.5 26.5815 132.679 27.3348 143C28.9553 165.202 28.9616 179.364 40.3348 198.5C50.6378 215.835 59.4984 222.415 75.334 233.5C95.334 247.5 107.55 253.807 121.335 271.5Z" fill="#00AEAB"/>
<path d="M471.454 126.984L417.022 290.28C414.106 297.732 408.922 301.458 401.47 301.458C393.694 301.458 388.348 297.732 385.432 290.28L331.729 126.984H366.721L401.47 239.736L436.219 126.984H471.454ZM623.585 300H588.35L578.63 270.111H520.553L511.076 300H475.841L531.245 141.564C533.675 136.056 536.348 132.249 539.264 130.143C542.342 128.037 546.068 126.984 550.442 126.984C554.816 126.984 558.299 127.956 560.891 129.9C563.645 131.844 566.075 135.732 568.181 141.564L623.585 300ZM570.854 241.68L550.442 173.154L529.058 241.68H570.854ZM782.19 126.984V282.504C782.19 287.85 780.57 292.467 777.33 296.355C774.09 300.081 770.283 301.944 765.909 301.944C754.731 301.944 745.578 295.464 738.45 282.504L678.672 188.949V300H644.895V126.984H677.457L748.413 240.222V126.984H782.19ZM929.744 157.116H883.331V300H849.554V157.116H803.384V126.984H929.744V157.116ZM1087.28 300H1052.04L1042.32 270.111H984.247L974.77 300H939.535L994.939 141.564C997.369 136.056 1000.04 132.249 1002.96 130.143C1006.04 128.037 1009.76 126.984 1014.14 126.984C1018.51 126.984 1021.99 127.956 1024.58 129.9C1027.34 131.844 1029.77 135.732 1031.87 141.564L1087.28 300ZM1034.55 241.68L1014.14 173.154L992.752 241.68H1034.55ZM1100.33 218.595V197.211C1100.33 174.693 1106.24 157.116 1118.07 144.48C1129.89 131.844 1146.25 125.526 1167.15 125.526C1188.05 125.526 1204.82 131.844 1217.45 144.48C1226.36 153.39 1230.82 166.755 1230.82 184.575H1199.23C1199.23 165.297 1188.94 155.658 1168.37 155.658C1162.21 155.658 1156.95 156.873 1152.57 159.303C1148.36 161.571 1145.2 164.244 1143.09 167.322C1140.99 170.4 1139.37 174.936 1138.23 180.93C1137.1 186.924 1136.45 191.946 1136.29 195.996C1136.13 200.046 1136.05 205.473 1136.05 212.277C1136.05 219.081 1136.05 223.698 1136.05 226.128C1136.21 228.396 1136.45 232.203 1136.78 237.549C1137.26 242.733 1137.91 246.459 1138.72 248.727C1139.69 250.995 1140.99 253.911 1142.61 257.475C1144.39 261.039 1146.58 263.55 1149.17 265.008C1155.81 269.22 1163.34 271.326 1171.77 271.326C1185.86 271.326 1195.83 265.332 1201.66 253.344V241.68H1180.76V213.492H1230.57V265.737C1225.55 277.563 1217.61 286.473 1206.76 292.467C1195.91 298.461 1183.59 301.458 1169.82 301.458C1145.36 301.458 1127.62 294.654 1116.61 281.046C1105.75 267.276 1100.33 246.459 1100.33 218.595ZM1379.71 300H1318.47C1299.03 300 1285.34 296.679 1277.41 290.037C1269.63 283.233 1265.74 271.326 1265.74 254.316V126.984H1379.71V157.116H1299.52V197.697H1355.65L1353.22 227.829H1299.52V251.886C1299.52 258.69 1301.06 263.388 1304.14 265.98C1307.21 268.572 1312.8 269.868 1320.9 269.868H1379.71V300Z" fill="#024145"/>
</svg>
