<svg width="1062" height="327" viewBox="0 0 1062 327" fill="none" xmlns="http://www.w3.org/2000/svg">
<path d="M140.454 73.984L86.022 237.28C83.106 244.732 77.922 248.458 70.47 248.458C62.694 248.458 57.348 244.732 54.432 237.28L0.729 73.984H35.721L70.47 186.736L105.219 73.984H140.454ZM292.585 247H257.35L247.63 217.111H189.553L180.076 247H144.841L200.245 88.564C202.675 83.056 205.348 79.249 208.264 77.143C211.342 75.037 215.068 73.984 219.442 73.984C223.816 73.984 227.299 74.956 229.891 76.9C232.645 78.844 235.075 82.732 237.181 88.564L292.585 247ZM239.854 188.68L219.442 120.154L198.058 188.68H239.854ZM451.19 73.984V229.504C451.19 234.85 449.57 239.467 446.33 243.355C443.09 247.081 439.283 248.944 434.909 248.944C423.731 248.944 414.578 242.464 407.45 229.504L347.672 135.949V247H313.895V73.984H346.457L417.413 187.222V73.984H451.19ZM598.744 104.116H552.331V247H518.554V104.116H472.384V73.984H598.744V104.116ZM756.279 247H721.044L711.324 217.111H653.247L643.77 247H608.535L663.939 88.564C666.369 83.056 669.042 79.249 671.958 77.143C675.036 75.037 678.762 73.984 683.136 73.984C687.51 73.984 690.993 74.956 693.585 76.9C696.339 78.844 698.769 82.732 700.875 88.564L756.279 247ZM703.548 188.68L683.136 120.154L661.752 188.68H703.548ZM769.327 165.595V144.211C769.327 121.693 775.24 104.116 787.066 91.48C798.892 78.844 815.254 72.526 836.152 72.526C857.05 72.526 873.817 78.844 886.453 91.48C895.363 100.39 899.818 113.755 899.818 131.575H868.228C868.228 112.297 857.941 102.658 837.367 102.658C831.211 102.658 825.946 103.873 821.572 106.303C817.36 108.571 814.201 111.244 812.095 114.322C809.989 117.4 808.369 121.936 807.235 127.93C806.101 133.924 805.453 138.946 805.291 142.996C805.129 147.046 805.048 152.473 805.048 159.277C805.048 166.081 805.048 170.698 805.048 173.128C805.21 175.396 805.453 179.203 805.777 184.549C806.263 189.733 806.911 193.459 807.721 195.727C808.693 197.995 809.989 200.911 811.609 204.475C813.391 208.039 815.578 210.55 818.17 212.008C824.812 216.22 832.345 218.326 840.769 218.326C854.863 218.326 864.826 212.332 870.658 200.344V188.68H849.76V160.492H899.575V212.737C894.553 224.563 886.615 233.473 875.761 239.467C864.907 245.461 852.595 248.458 838.825 248.458C814.363 248.458 796.624 241.654 785.608 228.046C774.754 214.276 769.327 193.459 769.327 165.595ZM1048.71 247H987.472C968.032 247 954.343 243.679 946.405 237.037C938.629 230.233 934.741 218.326 934.741 201.316V73.984H1048.71V104.116H968.518V144.697H1024.65L1022.22 174.829H968.518V198.886C968.518 205.69 970.057 210.388 973.135 212.98C976.213 215.572 981.802 216.868 989.902 216.868H1048.71V247Z" fill="#A5DACF"/>
</svg>
